# xmcd
# 
# Track frame offsets:
#     150
#     19561
#     34528
#     48793
#     64046
#     76535
#     91556
#     108716
#     125150
#     143547
#     160125
#     171155
#     184103
#     198949
#     211562
# 
# Disc length: 3011
# 
# Revision: 9
# Processed by: cddbd v1.5.2PL0 Copyright (c) Steve Scherf et al.
# Submitted via: BonkEnc v1.0
# 
DISCID=af0bc10f
DTITLE=Rio Negro and Solimões - Só Alegria
DYEAR=2001
DGENRE=Country
TTITLE0=Coração, Chora Saudade
TTITLE1=Balança, Mas Não Cai
TTITLE2=Solidão e Saudade
TTITLE3=Só Alegria
TTITLE4=Virou Paixão
TTITLE5=Vivendo Abandonado
TTITLE6=Te Dou o Mundo
TTITLE7=Tá Mentindo
TTITLE8=Lenha
TTITLE9=Deixa a Paixão Te Levar
TTITLE10=Fui Eu
TTITLE11=É Amor, É Paixão
TTITLE12=Lágrimas Geladas
TTITLE13=Bobeou, Tá Na Poeira
TTITLE14=Palmas Pro Amor
EXTD=YEAR: 2001 ID3G:   2
EXTT0=
EXTT1=
EXTT2=
EXTT3=
EXTT4=
EXTT5=
EXTT6=
EXTT7=
EXTT8=
EXTT9=
EXTT10=
EXTT11=
EXTT12=
EXTT13=
EXTT14=
PLAYORDER=
